<svg xmlns="http://www.w3.org/2000/svg" x="0px" y="0px" width="100" height="100" viewBox="0,0,256,256"
style="fill:#F25081;">
    <g fill="#f25081" fill-rule="nonzero" stroke="none" stroke-width="1" stroke-linecap="butt" stroke-linejoin="miter" stroke-miterlimit="10" stroke-dasharray="" stroke-dashoffset="0" font-family="none" font-weight="none" font-size="none" text-anchor="none" style="mix-blend-mode: normal"><g transform="scale(5.12,5.12)"><path d="M12.997,44.001v-1h-3.028c-3.3,0 -5.977,-2.677 -5.977,-5.977v-19.044c0,-3.299 2.677,-5.977 5.977,-5.977h10.612l-6.293,-6.293c-0.391,-0.391 -0.391,-1.024 0,-1.415c0.391,-0.391 1.024,-0.391 1.415,0l7.708,7.708h3.172l7.708,-7.708c0.391,-0.391 1.024,-0.391 1.415,0c0.391,0.391 0.391,1.024 0,1.415l-6.293,6.293h10.601c3.299,0 5.977,2.679 5.977,5.977v19.044c0,3.3 -2.679,5.977 -5.977,5.977h-3.027v1c0,1.104 -0.897,2.001 -2.001,2.001c-1.103,0 -2,-0.897 -2,-2.001v-1h-15.987v1c0,1.104 -0.897,2.001 -2,2.001c-1.104,0.001 -2.002,-0.897 -2.002,-2.001zM24.893,32.964l0.099,-0.089l0.099,0.091c0.749,0.651 1.787,1.036 2.901,1.036c1.9,0 3.569,-1.124 3.977,-2.757c0.135,-0.535 -0.192,-1.079 -0.728,-1.212c-0.535,-0.135 -1.079,0.192 -1.212,0.728c-0.161,0.641 -0.953,1.241 -2.037,1.241c-1.081,0 -1.865,-0.593 -2.033,-1.223c-0.263,-0.984 -1.668,-0.984 -1.932,-0.001c-0.168,0.625 -0.947,1.224 -2.032,1.224c-1.081,0 -1.88,-0.604 -2.04,-1.241c-0.133,-0.536 -0.677,-0.863 -1.212,-0.728c-0.536,0.133 -0.863,0.677 -0.728,1.212c0.409,1.639 2.083,2.757 3.98,2.757c1.114,-0.001 2.15,-0.387 2.898,-1.038zM14.315,25.951l6,-2c0.523,-0.175 0.807,-0.741 0.632,-1.265c-0.175,-0.523 -0.741,-0.807 -1.265,-0.632l-6,2c-0.523,0.175 -0.807,0.741 -0.632,1.265c0.174,0.522 0.741,0.806 1.265,0.632zM36.941,25.319c0.175,-0.524 -0.109,-1.091 -0.632,-1.265l-6,-2c-0.524,-0.175 -1.091,0.109 -1.265,0.632c-0.175,0.524 0.109,1.091 0.632,1.265l6,2c0.524,0.174 1.091,-0.11 1.265,-0.632z"></path></g></g>
</svg>